<?xml version="1.0" encoding="UTF-8" standalone="no"?>
<svg
   xmlns:dc="http://purl.org/dc/elements/1.1/"
   xmlns:cc="http://creativecommons.org/ns#"
   xmlns:rdf="http://www.w3.org/1999/02/22-rdf-syntax-ns#"
   xmlns:svg="http://www.w3.org/2000/svg"
   xmlns="http://www.w3.org/2000/svg"
   xmlns:sodipodi="http://sodipodi.sourceforge.net/DTD/sodipodi-0.dtd"
   xmlns:inkscape="http://www.inkscape.org/namespaces/inkscape"
   viewBox="0 0 666.05334 507.61334"
   height="507.61334"
   width="666.05334"
   xml:space="preserve"
   id="svg2"
   version="1.1"
   sodipodi:docname="logo.svg"
   inkscape:version="0.92.3 (2405546, 2018-03-11)"><sodipodi:namedview
     pagecolor="#ffffff"
     bordercolor="#666666"
     borderopacity="1"
     objecttolerance="10"
     gridtolerance="10"
     guidetolerance="10"
     inkscape:pageopacity="0"
     inkscape:pageshadow="2"
     inkscape:window-width="1920"
     inkscape:window-height="1147"
     id="namedview59"
     showgrid="false"
     inkscape:zoom="11.313709"
     inkscape:cx="711.52677"
     inkscape:cy="126.43093"
     inkscape:window-x="-8"
     inkscape:window-y="-8"
     inkscape:window-maximized="1"
     inkscape:current-layer="g14" /><metadata
     id="metadata8"><rdf:RDF><cc:Work
         rdf:about=""><dc:format>image/svg+xml</dc:format><dc:type
           rdf:resource="http://purl.org/dc/dcmitype/StillImage" /><dc:title></dc:title></cc:Work></rdf:RDF></metadata><defs
     id="defs6"><clipPath
       id="clipPath20"
       clipPathUnits="userSpaceOnUse"><path
         id="path18"
         d="M 0.00390625,0 H 4995.0039 V 3807 H 0.00390625 Z" /></clipPath></defs><g
     transform="matrix(1.3333333,0,0,-1.3333333,0,507.61333)"
     id="g10"
     style="fill:#28170b"><g
       transform="scale(0.1)"
       id="g12"
       style="fill:#28170b"><g
         id="g14"
         style="fill:#2b1100"><g
           clip-path="url(#clipPath20)"
           id="g16"
           style="fill:#2b1100"><path
             id="path22"
             style="fill:#2b1100;fill-opacity:1;fill-rule:nonzero;stroke:none"
             d="m 1560.73,3131.45 h -371.72 v -162.28 c -118.04,123.95 -280.322,194.75 -466.162,194.75 -395.364,0 -722.84409375,-342.26 -722.84409375,-793.65 0,-448.48 327.48009375,-790.69 722.84409375,-790.69 185.84,0 348.122,70.8 466.162,194.71 V 1612 h 371.72 z m -389.45,-764.13 c 0,-236.04 -174.061,-427.79 -389.456,-427.79 -215.351,0 -389.414,185.84 -389.414,427.79 0,247.81 174.063,436.65 389.414,436.65 215.395,0 389.456,-194.75 389.456,-436.65 M 2504.81,2252.23 2882.44,1612 h 495.68 l -598.95,926.43 566.48,593.02 H 2808.68 L 2310.1,2579.75 V 3807.1 H 1920.64 V 1612 h 389.46 v 436.66 z m 2445.87,879.22 h -371.77 v -162.28 c -118,123.95 -280.28,194.75 -466.17,194.75 -395.33,0 -722.81,-342.26 -722.81,-793.65 0,-448.48 327.48,-790.69 722.81,-790.69 185.89,0 348.17,70.8 466.17,194.71 V 1612 h 371.77 z m -389.47,-764.13 c 0,-236.04 -174.06,-427.79 -389.45,-427.79 -215.39,0 -389.45,185.84 -389.45,427.79 0,247.81 174.06,436.65 389.45,436.65 215.39,0 389.45,-194.75 389.45,-436.65" /><path
             id="path24"
             style="fill:#2b1100;fill-opacity:1;fill-rule:nonzero;stroke:none"
             d="m 151.203,1140.18 h 283.399 v 95.77 H 48.4258 V 695.629 H 151.203 v 220.332 h 243.688 v 95.729 H 151.203 Z m 645.449,95.77 H 693.875 V 695.629 h 102.777 z m 391.598,0 H 1084.71 V 695.629 h 372.13 v 95.73 h -268.59 z m 1050.29,0 h -153.38 l -112.89,-404.88 -112.9,404.88 H 1706.76 V 695.629 H 1808 v 396.301 l 109.78,-396.301 h 109.74 L 2137.3,1091.93 V 695.629 h 101.24 z m 769.2,-369.052 h -110.55 c -24.13,-49.066 -73.19,-87.199 -134.68,-87.199 -88.77,0 -158.85,85.653 -158.85,188.403 0,101.998 70.08,187.648 158.85,187.648 62.26,0 110.55,-36.59 134.68,-85.65 h 111.32 c -33.48,110.56 -123.79,179.85 -246,179.85 -147.19,0 -261.62,-123.79 -261.62,-281.848 0,-158.043 114.43,-281.832 261.62,-281.832 119.9,0 210.98,70.839 245.23,180.628 m 358.93,369.052 H 3263.13 V 695.629 h 372.13 v 95.73 h -268.59 z m 914.81,0 H 4177.92 V 906.602 c 0,-80.18 -35.05,-120.661 -105.12,-120.661 -70.07,0 -105.08,40.481 -105.08,120.661 V 1235.95 H 3864.93 V 909.719 c 0,-137.789 71.65,-223.449 207.87,-223.449 136.26,0 208.68,85.66 208.68,223.449 z m 713.93,-381.52 c 0,61.531 -28.01,105.121 -73.95,129.242 33.47,24.138 52.95,60.728 52.95,105.898 0,90.32 -54.53,146.38 -162.74,146.38 H 4562.52 V 695.629 h 263.17 c 104.31,0 169.72,62.25 169.72,158.801 m -183.74,288.09 c 38.95,0 63.07,-23.36 63.07,-59.18 0,-35.83 -28.05,-59.95 -63.07,-59.95 h -146.36 v 119.13 z m 78.62,-284.211 c 0,-52.911 -38.9,-68.489 -78.62,-68.489 h -146.36 v 139.371 h 144.02 c 52.18,0 80.96,-25.703 80.96,-70.882" /><path
             id="path26"
             style="fill:#2b1100;stroke:#fff319;stroke-width:324.32400513;stroke-linecap:butt;stroke-linejoin:miter;stroke-miterlimit:4;stroke-dasharray:none;stroke-opacity:1"
             d="M 0.00390625,162.148 H 4995.4" /></g><path
           style="fill:#2b1100"
           d="m 0.36058683,485.94246 v -21 H 332.86059 665.36058 v 21 21 H 332.86059 0.36058683 Z"
           id="path65"
           inkscape:connector-curvature="0"
           transform="matrix(7.5000002,0,0,-7.5000002,0,3807.1001)" /><rect
           style="fill:#2b1100;stroke-width:7.67879009"
           id="rect69"
           width="4996.7808"
           height="329.58405"
           x="-1.2730745"
           y="-325.33487"
           transform="scale(1,-1)" /></g></g></g></svg>